<svg width="129" height="42" viewBox="0 0 129 42" fill="none" xmlns="http://www.w3.org/2000/svg">
<path fill-rule="evenodd" clip-rule="evenodd" d="M4.13534 28.1313L10.6673 21.8893C10.1325 20.8499 9.83216 19.6805 9.83216 18.4441C9.83216 14.126 13.4952 10.6255 18.0139 10.6255C19.3078 10.6255 20.5315 10.9126 21.6192 11.4236L28.5011 4.84718C27.8411 4.37988 27.2148 3.85378 26.6235 3.31099C24.3898 1.26044 21.3559 0 18.0139 0C14.6719 0 11.6379 1.26044 9.40425 3.31099C7.50286 5.05648 5.23923 6.62933 2.65814 6.62933C1.14995 6.62933 -0.0385308 7.91417 0.0787994 9.41779L0.598623 16.0795C0.930927 20.3382 2.15416 24.4266 4.13534 28.1313ZM6.99724 32.5471C9.35608 35.5963 12.2977 38.2533 15.7217 40.3567C17.1278 41.2204 18.9 41.2204 20.306 40.3567C29.0557 34.9816 34.6557 25.9918 35.4291 16.0795L35.949 9.41779C36.0485 8.14214 35.2082 7.02398 34.0302 6.71423L25.3606 14.9989C25.8953 16.0383 26.1956 17.2077 26.1956 18.4441C26.1956 22.7621 22.5325 26.2626 18.0139 26.2626C16.7201 26.2626 15.4964 25.9756 14.4087 25.4646L6.99724 32.5471Z" fill="#F7971E"/>
<ellipse cx="18.0141" cy="18.4441" rx="3.71278" ry="3.54797" fill="#F7971E"/>
<path d="M61.88 11.951L54.4248 29.0489H50.4881L43.0576 11.951H47.3634L52.6041 24.1638L57.9187 11.951H61.88Z" fill="black"/>
<path d="M70.7731 11.951C72.2986 11.951 73.619 12.2034 74.7344 12.7082C75.8662 13.213 76.7356 13.9295 77.3425 14.8577C77.9494 15.7859 78.2528 16.885 78.2528 18.1551C78.2528 19.409 77.9494 20.5081 77.3425 21.4526C76.7356 22.3808 75.8662 23.0972 74.7344 23.602C73.619 24.0905 72.2986 24.3348 70.7731 24.3348H67.3039V29.0489H63.318V11.951H70.7731ZM70.5517 21.1106C71.7491 21.1106 72.6594 20.8582 73.2828 20.3534C73.9061 19.8324 74.2177 19.0996 74.2177 18.1551C74.2177 17.1944 73.9061 16.4616 73.2828 15.9568C72.6594 15.4358 71.7491 15.1752 70.5517 15.1752H67.3039V21.1106H70.5517Z" fill="black"/>
<path d="M96.8945 11.951V29.0489H93.6221L85.0352 18.6681V29.0489H81.0985V11.951H84.3955L92.9578 22.3319V11.951H96.8945Z" fill="black"/>
<path d="M100.969 11.951H104.955V25.8248H113.591V29.0489H100.969V11.951Z" fill="black"/>
<path d="M122.308 22.9914V29.0489H118.322V22.9425L111.654 11.951H115.886L120.487 19.5474L125.088 11.951H129L122.308 22.9914Z" fill="black"/>
</svg>
