<svg width="73" height="73" viewBox="0 0 73 73" fill="none" xmlns="http://www.w3.org/2000/svg">
<ellipse cx="36.5" cy="36.5" rx="24.5385" ry="24.8793" fill="url(#paint0_linear_130_2262)"/>
<path fill-rule="evenodd" clip-rule="evenodd" d="M8.79814 45.3544C9.22272 44.8219 10.0451 44.9019 10.3807 45.4945C10.592 45.8676 10.5352 46.3335 10.253 46.6562C8.58309 48.5663 7.8623 50.0524 8.34167 50.8988C9.87968 53.6143 23.1896 48.7161 38.0701 39.9583C38.5828 39.6566 39.0906 39.3542 39.5932 39.0515C39.7697 38.9452 39.8711 38.7502 39.8711 38.5441C39.8711 35.0575 42.6589 32.231 46.0977 32.231C47.9397 32.231 49.938 32.2865 51.4169 31.1885C58.8396 25.6776 63.2484 20.9839 62.229 19.1839C61.773 18.3788 60.2823 18.2429 58.0227 18.6785C57.6057 18.7588 57.1791 18.5731 56.9698 18.2035C56.6452 17.6304 56.9809 16.9074 57.6325 16.8108C62.0848 16.151 65.243 16.7032 66.3503 18.6582C68.4245 22.3206 62.718 29.8754 52.7833 37.5578C52.4819 37.7909 52.3244 38.1632 52.3244 38.5441C52.3244 42.0308 49.5366 44.8572 46.0977 44.8572C45.9271 44.8572 45.758 44.8503 45.5909 44.8366C44.0557 44.7112 42.4187 44.6458 41.0913 45.4271C24.3487 55.2808 8.5125 59.2719 5.72011 54.3416C4.57539 52.3205 5.80044 49.1138 8.79814 45.3544Z" fill="white"/>
<ellipse cx="46.0978" cy="38.5441" rx="3.11332" ry="3.15656" fill="#70AF09"/>
<g opacity="0.32">
<path d="M23.9252 27.9912C22.415 31.7719 22.8915 35.7589 21.0392 34.9983C19.1869 34.2377 18.9096 30.5563 20.4197 26.7755C21.9299 22.9948 24.6557 20.5464 26.508 21.307C28.3603 22.0676 25.4354 24.2105 23.9252 27.9912Z" fill="#E5E5E5"/>
<path d="M22.7625 38.7543C22.8974 39.9993 22.3288 41.0841 21.4925 41.1773C20.6562 41.2704 19.8689 40.3367 19.734 39.0916C19.5991 37.8466 20.1676 36.7618 21.0039 36.6686C21.8402 36.5754 22.6275 37.5092 22.7625 38.7543Z" fill="#E5E5E5"/>
</g>
<path d="M29.2551 55.4535C28.4024 54.9541 28.8111 54.1169 30.8823 53.4209C35.2494 52.449 34.5126 54.4139 40.797 53.6579C47.0815 52.9019 50.3945 50.2751 52.0633 48.5472C53.3983 47.1649 54.6323 45.2942 54.5731 45.9542C54.2891 47.3582 51.9954 51.0588 45.0932 54.6299C36.4654 59.0937 30.5626 56.2195 29.2551 55.4535Z" fill="#080F1B" fill-opacity="0.11"/>
<path d="M57.0204 22.7126C57.8229 22.1734 58.0474 21.0851 57.4669 20.3121C53.7197 15.3225 48.3461 11.812 42.2752 10.4296C35.6406 8.91872 28.6867 10.0665 22.8673 13.6329C17.0478 17.1994 12.8133 22.9084 11.0488 29.5667C9.4376 35.6468 10 42.0886 12.602 47.7633C13.0115 48.6564 14.1007 48.9699 14.9592 48.4919C15.8037 48.0218 16.1061 46.9621 15.7107 46.0801C13.5259 41.2069 13.0672 35.6966 14.4463 30.4922C15.9753 24.7228 19.6445 19.7758 24.6871 16.6855C29.7297 13.5951 35.7553 12.6006 41.5043 13.9097C46.6746 15.0871 51.2613 18.0459 54.4999 22.252C55.1004 23.0319 56.2034 23.2616 57.0204 22.7126Z" fill="white"/>
<path d="M21.4654 56.2457C20.8737 57.0227 21.0089 58.1384 21.809 58.6831C25.5848 61.2537 29.9619 62.7956 34.5168 63.1441C39.6521 63.537 44.7885 62.3958 49.2912 59.8615C53.7938 57.3272 57.4655 53.5108 59.8523 48.8841C61.9694 44.7802 62.9935 40.1983 62.8385 35.5898C62.8057 34.6131 61.9436 33.9068 60.9805 34.005C60.0104 34.1038 59.3073 34.9812 59.3297 35.9653C59.4188 39.8729 58.5306 43.7503 56.735 47.2309C54.6668 51.24 51.4853 54.5469 47.5837 56.7429C43.6821 58.9389 39.2314 59.9278 34.7815 59.5873C30.918 59.2917 27.2022 58.0052 23.9781 55.8617C23.1666 55.3222 22.061 55.4634 21.4654 56.2457Z" fill="white"/>
<defs>
<linearGradient id="paint0_linear_130_2262" x1="10.4772" y1="-6.04983" x2="48.3653" y2="57.6161" gradientUnits="userSpaceOnUse">
<stop offset="0.394669" stop-color="#FF3A3A"/>
<stop offset="0.72037" stop-color="#D64D12"/>
<stop offset="0.749987" stop-color="#70AF09"/>
</linearGradient>
</defs>
</svg>
